Patient4_TMGait_0pt2_01_left_21_EMG.mot
version=1
nRows=13
nColumns=33
inDegrees=no
endheader
time	1LAddLong	2LGlutMax	3LGlutMed	4LIliopsoas	5LSemiMemb	6LBicFemLong	7LRecFem	8LVastMed	9LVastLat	10LGasMed	11LTibAnt	12lTibPost	13LPeroneusLong	14LSol	15LExtDigLong	16LFlexDigLong	17RAddLong	18RGlutMax	19RGlutMed	20RIliopsoas	21RSemiMemb	22RBicFemLong	23RRecFem	24RVastMed	25RVastLat	26RGasMed	27RTibAnt	28RTibPost	29RPeroneusLong	30RSol	31RExtDigLong	32RFlexDigLong
50.585	0.007782	-0.006409	0.029602	0.006409	0.010223	0.001526	0.022278	0.005646	-0.022736	-0.036774	-0.021057	0.010986	0.023956	0.01709	0.008698	0.02533	0.001831	0.19012	0.1355	-0.10132	-0.005188	-0.12726	0.44311	-0.40146	-0.63477	-0.000305	0.007172	-0.00351	1.188	-0.16647	-0.000458	-0.016785
50.586	0.006714	0.007324	0.035248	0.006561	-0.006104	0.001068	0.005341	0.005493	-0.01358	-0.000916	-0.032959	0.00412	-0.046387	0.005035	-0.025787	0.018616	-0.011139	0.19119	0.10056	-0.11368	0.009613	-0.11383	0.34607	-0.46173	-0.49164	0.004272	0.067444	-0.028839	1.0318	-0.32333	-0.001831	-0.016479
50.587	0.008545	0.003815	0.005035	0.009766	0.000153	-0.02594	-0.004425	0.009155	-0.02533	-0.00061	-0.20035	-0.015564	-0.024261	0.005188	-0.18097	0.020142	-0.001221	0.11215	0.79041	-0.05661	0.027618	-0.11124	0.16602	-0.12573	-0.24506	0.008392	-0.16434	-0.016479	-2.4718	-0.28763	-0.004883	-0.010529
50.588	-0.000916	-0.011597	-0.038757	0.003662	0.003204	0.003204	0.002136	0.00946	-0.03067	-0.020447	-0.077209	-0.005493	0.036163	-0.015106	-0.19547	0.014038	-0.009918	0.028534	0.60013	0.10635	-0.009003	-0.1059	-0.080109	-0.07019	0.11444	-0.003662	-0.10193	0.037079	-2.5888	0.018768	-0.014801	-0.016022
50.589	0.00473	-0.023193	-0.037079	0.005341	0.003967	0.008087	-0.004425	0.008545	-0.030823	-0.020447	0.028687	0.02243	0.067596	-0.046997	-0.11841	0.023499	0.024567	-0.073395	-0.18402	0.15381	-0.15564	-0.14404	-0.13565	-0.18127	0.21484	0.000916	-0.074158	0.018005	-1.0783	0.20996	-0.001373	-0.014801
50.59	-0.005188	-0.023193	-0.014038	-0.00061	-0.007935	0.01709	0	0.008545	-0.031738	0.012817	-0.008698	0.011902	0.072479	-0.032043	0.033875	0.009155	0.03006	-0.11276	-1.1302	0.099335	-0.271	-0.12894	-0.021057	-0.17425	0.15335	0.003204	-0.17929	0.013275	1.9106	0.082245	-0.003204	-0.022278
50.591	-0.010071	-0.049286	0.045013	-0.007935	-0.001831	0.020447	0.00351	0.010223	-0.022583	-0.001831	0.059357	0.027466	0.011749	0.015869	0.34698	0.010376	0.013733	-0.13458	-0.42618	-0.000458	-0.45136	-0.12878	0.058289	0.005646	0.058289	-0.006104	-0.042877	0.014648	1.2378	0.049744	-0.000916	-0.029449
50.592	0.007019	-0.089569	-0.021973	0.003662	0.000305	0.018768	-0.002747	0.005341	-0.029449	-0.006714	0.1236	0.011749	-0.025635	0.010681	0.26825	0.010376	0.023956	-0.18448	0.28503	0.046539	-0.327	-0.13779	0.036163	-0.034943	0.11688	-0.008392	-0.033112	0.005188	-0.35873	0.18509	-0.001831	-0.023346
50.593	0.006561	-0.078583	-0.017853	0.001831	-0.001984	0.007019	-0.012665	0.005646	-0.019379	-0.002594	0.12375	0.006256	-0.069275	0.03006	0.25925	0.012665	0.045319	-0.16617	-0.92758	0.13962	-0.027466	-0.15305	-0.023041	-0.28839	0.19608	-0.009308	-0.047607	-0.088959	-0.086517	0.23499	-0.002136	-0.018005
50.594	0.011597	-0.094452	0.005646	0.011139	-0.000305	0.018768	-0.000305	0.006866	-0.013275	-0.024719	0.21591	0.007782	-0.093689	0.050812	-0.042725	0.015564	0.017853	-0.10559	-0.242	0.001373	0.2803	-0.068359	-0.022125	-0.31662	0.12466	-0.019684	0.048828	0.012512	-0.62256	0.18951	0.002441	-0.028687
50.595	0.052032	-0.063171	-0.00946	0.017548	0.002289	0.014496	0.007935	0.000305	-0.025024	-0.034332	0.082092	0.031281	-0.030518	0.03006	-0.1442	0.018158	0.010529	0.019226	0.8252	-0.14923	0.44922	-0.092316	0.057526	-0.68649	0.029144	-0.015869	0.14648	0.057831	-1.4037	0.16571	-0.000916	-0.034332
50.596	-0.002747	-0.078888	0.009918	0.012207	0.002289	0.001984	-0.011597	0.006104	-0.018768	-0.028839	-0.092621	0.01297	-0.004883	-0.012207	0.5011	0.018616	-0.008087	0.002899	0.19653	-0.14114	0.27496	-0.15366	0.12436	-0.68634	-0.12741	-0.014191	0.079346	0.008087	-0.65201	0.19577	-0.000916	-0.030823
50.597	-0.009003	-0.080261	-0.052185	0.00824	-0.007172	-0.027924	-0.010071	0.009003	-0.022888	-0.012817	-0.028381	0.007782	-0.01358	-0.038147	-0.43427	0.003052	0.001831	0.031433	0.17868	-0.031891	0.21225	-0.1976	0.089874	-0.50079	-0.13123	-0.005798	-0.099945	0.005493	0.22659	0.22568	-0.003204	-0.022583
